<svg width="32" height="32" viewBox="0 0 32 32" fill="none" xmlns="http://www.w3.org/2000/svg">
<g id="package alt 3">
<path id="primary" d="M29.3332 12V26.6667C29.3332 27.3739 29.0522 28.0522 28.5521 28.5523C28.052 29.0524 27.3738 29.3333 26.6665 29.3333H5.33319C4.62595 29.3333 3.94767 29.0524 3.44757 28.5523C2.94748 28.0522 2.66653 27.3739 2.66653 26.6667V12H29.3332ZM28.9465 9.71999L22.6665 3.43999C22.1665 2.9441 21.4907 2.6661 20.7865 2.66666H11.2132C10.509 2.6661 9.83317 2.9441 9.33319 3.43999L3.05319 9.71999C2.92962 9.84458 2.83185 9.99233 2.7655 10.1548C2.69915 10.3172 2.66551 10.4912 2.66653 10.6667H29.3332C29.3342 10.4912 29.3006 10.3172 29.2342 10.1548C29.1679 9.99233 29.0701 9.84458 28.9465 9.71999Z" fill="#909090"/>
<path id="secondary" d="M17.3332 2.66666V17.3333C17.3332 17.6869 17.1927 18.0261 16.9426 18.2761C16.6926 18.5262 16.3535 18.6667 15.9998 18.6667C15.6462 18.6667 15.3071 18.5262 15.057 18.2761C14.807 18.0261 14.6665 17.6869 14.6665 17.3333V2.66666H17.3332Z" fill="#EFEFEF"/>
</g>
</svg>
