<svg width="32" height="32" viewBox="0 0 32 32" fill="none" xmlns="http://www.w3.org/2000/svg">
<g id="sign out left">
<path id="secondary" d="M26.6668 28H22.6668C22.3132 28 21.9741 27.8595 21.724 27.6095C21.474 27.3594 21.3335 27.0203 21.3335 26.6667C21.3335 26.313 21.474 25.9739 21.724 25.7239C21.9741 25.4738 22.3132 25.3333 22.6668 25.3333H26.6668V6.66667H22.6668C22.3132 6.66667 21.9741 6.52619 21.724 6.27614C21.474 6.02609 21.3335 5.68696 21.3335 5.33333C21.3335 4.97971 21.474 4.64057 21.724 4.39052C21.9741 4.14048 22.3132 4 22.6668 4H26.6668C27.3741 4 28.0524 4.28095 28.5524 4.78105C29.0525 5.28115 29.3335 5.95942 29.3335 6.66667V25.3333C29.3335 26.0406 29.0525 26.7189 28.5524 27.219C28.0524 27.719 27.3741 28 26.6668 28Z" fill="#898989"/>
<path id="primary" d="M22.6667 12H15.7867C16.2344 11.4649 16.4546 10.7756 16.4 10.08C16.3744 9.72997 16.28 9.38843 16.1221 9.07497C15.9642 8.76151 15.746 8.4823 15.48 8.25334L13.4533 6.52001C13.1872 6.29237 12.8788 6.11938 12.5458 6.01092C12.2128 5.90246 11.8617 5.86066 11.5126 5.8879C11.1634 5.91514 10.8231 6.01089 10.5109 6.16968C10.1988 6.32846 9.92096 6.54718 9.69335 6.81334L3.30668 14.2667C2.89353 14.7497 2.6665 15.3644 2.6665 16C2.6665 16.6356 2.89353 17.2503 3.30668 17.7333L9.69335 25.1867C9.92096 25.4528 10.1988 25.6716 10.5109 25.8303C10.8231 25.9891 11.1634 26.0849 11.5126 26.1121C11.8617 26.1394 12.2128 26.0976 12.5458 25.9891C12.8788 25.8806 13.1872 25.7077 13.4533 25.48L15.48 23.7467C15.746 23.5177 15.9642 23.2385 16.1221 22.9251C16.28 22.6116 16.3744 22.2701 16.4 21.92C16.4546 21.2244 16.2344 20.5351 15.7867 20H22.6667C23.0203 20 23.3594 19.8595 23.6095 19.6095C23.8595 19.3594 24 19.0203 24 18.6667V13.3333C24 12.9797 23.8595 12.6406 23.6095 12.3905C23.3594 12.1405 23.0203 12 22.6667 12Z" fill="#898989"/>
</g>
</svg>
