<svg width="36" height="36" viewBox="0 0 36 36" fill="none" xmlns="http://www.w3.org/2000/svg">
<g id="video">
<path id="secondary" d="M31.575 10.95C31.1414 10.6821 30.6466 10.5292 30.1375 10.5056C29.6283 10.482 29.1216 10.5884 28.665 10.815L24.825 12.735C24.5776 12.8596 24.3696 13.0504 24.224 13.286C24.0784 13.5216 24.0008 13.793 24 14.07V21.93C24.0008 22.207 24.0784 22.4784 24.224 22.714C24.3696 22.9496 24.5776 23.1403 24.825 23.265L28.665 25.185C29.0797 25.3917 29.5366 25.4995 30 25.5C30.7956 25.5 31.5587 25.1839 32.1213 24.6213C32.6839 24.0587 33 23.2956 33 22.5V13.5C32.9994 12.9887 32.8682 12.4861 32.6188 12.0398C32.3694 11.5935 32.0101 11.2184 31.575 10.95Z" fill="#2F2F2F"/>
<path id="primary" d="M24 7H6C4.34315 7 3 8.4071 3 10.1429V25.8571C3 27.5929 4.34315 29 6 29H24C25.6569 29 27 27.5929 27 25.8571V10.1429C27 8.4071 25.6569 7 24 7Z" fill="#2F2F2F"/>
<path id="secondary_2" d="M13.5 22C13.2652 21.9985 13.034 21.9382 12.825 21.824C12.5776 21.691 12.3696 21.4876 12.224 21.2363C12.0784 20.9849 12.0008 20.6955 12 20.4V15.6C12 15.3029 12.0776 15.0116 12.224 14.7588C12.3705 14.5061 12.58 14.3018 12.8292 14.1689C13.0783 14.036 13.3573 13.9798 13.6347 14.0065C13.9122 14.0332 14.1771 14.1417 14.4 14.32L17.4 16.72C17.5863 16.869 17.7375 17.0623 17.8416 17.2845C17.9458 17.5066 18 17.7516 18 18C18 18.2484 17.9458 18.4934 17.8416 18.7155C17.7375 18.9377 17.5863 19.131 17.4 19.28L14.4 21.68C14.1404 21.8877 13.8246 22 13.5 22Z" fill="#EFEFEF"/>
</g>
</svg>
